<?xml version="1.0" encoding="utf-8" standalone="no"?>
<!DOCTYPE svg PUBLIC "-//W3C//DTD SVG 1.1//EN"
  "http://www.w3.org/Graphics/SVG/1.1/DTD/svg11.dtd">
<svg height="345.6pt" version="1.1" viewBox="0 0 460.8 345.6" width="460.8pt" xmlns="http://www.w3.org/2000/svg" xmlns:xlink="http://www.w3.org/1999/xlink">
 <metadata>
  <rdf:RDF xmlns:cc="http://creativecommons.org/ns#" xmlns:dc="http://purl.org/dc/elements/1.1/" xmlns:rdf="http://www.w3.org/1999/02/22-rdf-syntax-ns#">
   <cc:Work>
    <dc:type rdf:resource="http://purl.org/dc/dcmitype/StillImage"/>
    <dc:date>2021-10-10T23:26:53.791201</dc:date>
    <dc:format>image/svg+xml</dc:format>
    <dc:creator>
     <cc:Agent>
      <dc:title>Matplotlib v3.4.3, https://matplotlib.org/</dc:title>
     </cc:Agent>
    </dc:creator>
   </cc:Work>
  </rdf:RDF>
 </metadata>
 <defs>
  <style type="text/css">*{stroke-linecap:butt;stroke-linejoin:round;}</style>
 </defs>
 <g id="figure_1">
  <g id="patch_1">
   <path d="M 0 345.6 
L 460.8 345.6 
L 460.8 0 
L 0 0 
z
" style="fill:#ffffff;"/>
  </g>
  <g id="axes_1">
   <g id="patch_2">
    <path d="M 57.6 307.584 
L 414.72 307.584 
L 414.72 41.472 
L 57.6 41.472 
z
" style="fill:#ffffff;"/>
   </g>
   <g id="patch_3">
    <path clip-path="url(#p468d79e3c8)" d="M 73.832727 307.584 
L 84.654545 307.584 
L 84.654545 301.50144 
L 73.832727 301.50144 
z
" style="fill:#1f77b4;"/>
   </g>
   <g id="patch_4">
    <path clip-path="url(#p468d79e3c8)" d="M 84.654545 307.584 
L 95.476364 307.584 
L 95.476364 307.584 
L 84.654545 307.584 
z
" style="fill:#1f77b4;"/>
   </g>
   <g id="patch_5">
    <path clip-path="url(#p468d79e3c8)" d="M 95.476364 307.584 
L 106.298182 307.584 
L 106.298182 301.50144 
L 95.476364 301.50144 
z
" style="fill:#1f77b4;"/>
   </g>
   <g id="patch_6">
    <path clip-path="url(#p468d79e3c8)" d="M 106.298182 307.584 
L 117.12 307.584 
L 117.12 279.19872 
L 106.298182 279.19872 
z
" style="fill:#1f77b4;"/>
   </g>
   <g id="patch_7">
    <path clip-path="url(#p468d79e3c8)" d="M 117.12 307.584 
L 127.941818 307.584 
L 127.941818 305.55648 
L 117.12 305.55648 
z
" style="fill:#1f77b4;"/>
   </g>
   <g id="patch_8">
    <path clip-path="url(#p468d79e3c8)" d="M 127.941818 307.584 
L 138.763636 307.584 
L 138.763636 297.4464 
L 127.941818 297.4464 
z
" style="fill:#1f77b4;"/>
   </g>
   <g id="patch_9">
    <path clip-path="url(#p468d79e3c8)" d="M 138.763636 307.584 
L 149.585455 307.584 
L 149.585455 275.14368 
L 138.763636 275.14368 
z
" style="fill:#1f77b4;"/>
   </g>
   <g id="patch_10">
    <path clip-path="url(#p468d79e3c8)" d="M 149.585455 307.584 
L 160.407273 307.584 
L 160.407273 279.19872 
L 149.585455 279.19872 
z
" style="fill:#1f77b4;"/>
   </g>
   <g id="patch_11">
    <path clip-path="url(#p468d79e3c8)" d="M 160.407273 307.584 
L 171.229091 307.584 
L 171.229091 271.08864 
L 160.407273 271.08864 
z
" style="fill:#1f77b4;"/>
   </g>
   <g id="patch_12">
    <path clip-path="url(#p468d79e3c8)" d="M 171.229091 307.584 
L 182.050909 307.584 
L 182.050909 285.28128 
L 171.229091 285.28128 
z
" style="fill:#1f77b4;"/>
   </g>
   <g id="patch_13">
    <path clip-path="url(#p468d79e3c8)" d="M 182.050909 307.584 
L 192.872727 307.584 
L 192.872727 285.28128 
L 182.050909 285.28128 
z
" style="fill:#1f77b4;"/>
   </g>
   <g id="patch_14">
    <path clip-path="url(#p468d79e3c8)" d="M 192.872727 307.584 
L 203.694545 307.584 
L 203.694545 224.45568 
L 192.872727 224.45568 
z
" style="fill:#1f77b4;"/>
   </g>
   <g id="patch_15">
    <path clip-path="url(#p468d79e3c8)" d="M 203.694545 307.584 
L 214.516364 307.584 
L 214.516364 212.29056 
L 203.694545 212.29056 
z
" style="fill:#1f77b4;"/>
   </g>
   <g id="patch_16">
    <path clip-path="url(#p468d79e3c8)" d="M 214.516364 307.584 
L 225.338182 307.584 
L 225.338182 273.11616 
L 214.516364 273.11616 
z
" style="fill:#1f77b4;"/>
   </g>
   <g id="patch_17">
    <path clip-path="url(#p468d79e3c8)" d="M 225.338182 307.584 
L 236.16 307.584 
L 236.16 252.84096 
L 225.338182 252.84096 
z
" style="fill:#1f77b4;"/>
   </g>
   <g id="patch_18">
    <path clip-path="url(#p468d79e3c8)" d="M 236.16 307.584 
L 246.981818 307.584 
L 246.981818 175.7952 
L 236.16 175.7952 
z
" style="fill:#1f77b4;"/>
   </g>
   <g id="patch_19">
    <path clip-path="url(#p468d79e3c8)" d="M 246.981818 307.584 
L 257.803636 307.584 
L 257.803636 254.86848 
L 246.981818 254.86848 
z
" style="fill:#1f77b4;"/>
   </g>
   <g id="patch_20">
    <path clip-path="url(#p468d79e3c8)" d="M 257.803636 307.584 
L 268.625455 307.584 
L 268.625455 238.64832 
L 257.803636 238.64832 
z
" style="fill:#1f77b4;"/>
   </g>
   <g id="patch_21">
    <path clip-path="url(#p468d79e3c8)" d="M 268.625455 307.584 
L 279.447273 307.584 
L 279.447273 234.59328 
L 268.625455 234.59328 
z
" style="fill:#1f77b4;"/>
   </g>
   <g id="patch_22">
    <path clip-path="url(#p468d79e3c8)" d="M 279.447273 307.584 
L 290.269091 307.584 
L 290.269091 291.36384 
L 279.447273 291.36384 
z
" style="fill:#1f77b4;"/>
   </g>
   <g id="patch_23">
    <path clip-path="url(#p468d79e3c8)" d="M 290.269091 307.584 
L 301.090909 307.584 
L 301.090909 289.33632 
L 290.269091 289.33632 
z
" style="fill:#1f77b4;"/>
   </g>
   <g id="patch_24">
    <path clip-path="url(#p468d79e3c8)" d="M 301.090909 307.584 
L 311.912727 307.584 
L 311.912727 297.4464 
L 301.090909 297.4464 
z
" style="fill:#1f77b4;"/>
   </g>
   <g id="patch_25">
    <path clip-path="url(#p468d79e3c8)" d="M 311.912727 307.584 
L 322.734545 307.584 
L 322.734545 307.584 
L 311.912727 307.584 
z
" style="fill:#1f77b4;"/>
   </g>
   <g id="patch_26">
    <path clip-path="url(#p468d79e3c8)" d="M 322.734545 307.584 
L 333.556364 307.584 
L 333.556364 305.55648 
L 322.734545 305.55648 
z
" style="fill:#1f77b4;"/>
   </g>
   <g id="patch_27">
    <path clip-path="url(#p468d79e3c8)" d="M 333.556364 307.584 
L 344.378182 307.584 
L 344.378182 307.584 
L 333.556364 307.584 
z
" style="fill:#1f77b4;"/>
   </g>
   <g id="patch_28">
    <path clip-path="url(#p468d79e3c8)" d="M 344.378182 307.584 
L 355.2 307.584 
L 355.2 305.55648 
L 344.378182 305.55648 
z
" style="fill:#1f77b4;"/>
   </g>
   <g id="patch_29">
    <path clip-path="url(#p468d79e3c8)" d="M 355.2 307.584 
L 366.021818 307.584 
L 366.021818 307.584 
L 355.2 307.584 
z
" style="fill:#1f77b4;"/>
   </g>
   <g id="patch_30">
    <path clip-path="url(#p468d79e3c8)" d="M 366.021818 307.584 
L 376.843636 307.584 
L 376.843636 307.584 
L 366.021818 307.584 
z
" style="fill:#1f77b4;"/>
   </g>
   <g id="patch_31">
    <path clip-path="url(#p468d79e3c8)" d="M 376.843636 307.584 
L 387.665455 307.584 
L 387.665455 307.584 
L 376.843636 307.584 
z
" style="fill:#1f77b4;"/>
   </g>
   <g id="patch_32">
    <path clip-path="url(#p468d79e3c8)" d="M 387.665455 307.584 
L 398.487273 307.584 
L 398.487273 305.55648 
L 387.665455 305.55648 
z
" style="fill:#1f77b4;"/>
   </g>
   <g id="patch_33">
    <path clip-path="url(#p468d79e3c8)" d="M 73.832727 301.50144 
L 84.654545 301.50144 
L 84.654545 301.50144 
L 73.832727 301.50144 
z
" style="fill:#ff7f0e;"/>
   </g>
   <g id="patch_34">
    <path clip-path="url(#p468d79e3c8)" d="M 84.654545 307.584 
L 95.476364 307.584 
L 95.476364 307.584 
L 84.654545 307.584 
z
" style="fill:#ff7f0e;"/>
   </g>
   <g id="patch_35">
    <path clip-path="url(#p468d79e3c8)" d="M 95.476364 301.50144 
L 106.298182 301.50144 
L 106.298182 301.50144 
L 95.476364 301.50144 
z
" style="fill:#ff7f0e;"/>
   </g>
   <g id="patch_36">
    <path clip-path="url(#p468d79e3c8)" d="M 106.298182 279.19872 
L 117.12 279.19872 
L 117.12 277.1712 
L 106.298182 277.1712 
z
" style="fill:#ff7f0e;"/>
   </g>
   <g id="patch_37">
    <path clip-path="url(#p468d79e3c8)" d="M 117.12 305.55648 
L 127.941818 305.55648 
L 127.941818 305.55648 
L 117.12 305.55648 
z
" style="fill:#ff7f0e;"/>
   </g>
   <g id="patch_38">
    <path clip-path="url(#p468d79e3c8)" d="M 127.941818 297.4464 
L 138.763636 297.4464 
L 138.763636 297.4464 
L 127.941818 297.4464 
z
" style="fill:#ff7f0e;"/>
   </g>
   <g id="patch_39">
    <path clip-path="url(#p468d79e3c8)" d="M 138.763636 275.14368 
L 149.585455 275.14368 
L 149.585455 275.14368 
L 138.763636 275.14368 
z
" style="fill:#ff7f0e;"/>
   </g>
   <g id="patch_40">
    <path clip-path="url(#p468d79e3c8)" d="M 149.585455 279.19872 
L 160.407273 279.19872 
L 160.407273 277.1712 
L 149.585455 277.1712 
z
" style="fill:#ff7f0e;"/>
   </g>
   <g id="patch_41">
    <path clip-path="url(#p468d79e3c8)" d="M 160.407273 271.08864 
L 171.229091 271.08864 
L 171.229091 271.08864 
L 160.407273 271.08864 
z
" style="fill:#ff7f0e;"/>
   </g>
   <g id="patch_42">
    <path clip-path="url(#p468d79e3c8)" d="M 171.229091 285.28128 
L 182.050909 285.28128 
L 182.050909 285.28128 
L 171.229091 285.28128 
z
" style="fill:#ff7f0e;"/>
   </g>
   <g id="patch_43">
    <path clip-path="url(#p468d79e3c8)" d="M 182.050909 285.28128 
L 192.872727 285.28128 
L 192.872727 285.28128 
L 182.050909 285.28128 
z
" style="fill:#ff7f0e;"/>
   </g>
   <g id="patch_44">
    <path clip-path="url(#p468d79e3c8)" d="M 192.872727 224.45568 
L 203.694545 224.45568 
L 203.694545 224.45568 
L 192.872727 224.45568 
z
" style="fill:#ff7f0e;"/>
   </g>
   <g id="patch_45">
    <path clip-path="url(#p468d79e3c8)" d="M 203.694545 212.29056 
L 214.516364 212.29056 
L 214.516364 212.29056 
L 203.694545 212.29056 
z
" style="fill:#ff7f0e;"/>
   </g>
   <g id="patch_46">
    <path clip-path="url(#p468d79e3c8)" d="M 214.516364 273.11616 
L 225.338182 273.11616 
L 225.338182 271.08864 
L 214.516364 271.08864 
z
" style="fill:#ff7f0e;"/>
   </g>
   <g id="patch_47">
    <path clip-path="url(#p468d79e3c8)" d="M 225.338182 252.84096 
L 236.16 252.84096 
L 236.16 250.81344 
L 225.338182 250.81344 
z
" style="fill:#ff7f0e;"/>
   </g>
   <g id="patch_48">
    <path clip-path="url(#p468d79e3c8)" d="M 236.16 175.7952 
L 246.981818 175.7952 
L 246.981818 169.71264 
L 236.16 169.71264 
z
" style="fill:#ff7f0e;"/>
   </g>
   <g id="patch_49">
    <path clip-path="url(#p468d79e3c8)" d="M 246.981818 254.86848 
L 257.803636 254.86848 
L 257.803636 254.86848 
L 246.981818 254.86848 
z
" style="fill:#ff7f0e;"/>
   </g>
   <g id="patch_50">
    <path clip-path="url(#p468d79e3c8)" d="M 257.803636 238.64832 
L 268.625455 238.64832 
L 268.625455 236.6208 
L 257.803636 236.6208 
z
" style="fill:#ff7f0e;"/>
   </g>
   <g id="patch_51">
    <path clip-path="url(#p468d79e3c8)" d="M 268.625455 234.59328 
L 279.447273 234.59328 
L 279.447273 232.56576 
L 268.625455 232.56576 
z
" style="fill:#ff7f0e;"/>
   </g>
   <g id="patch_52">
    <path clip-path="url(#p468d79e3c8)" d="M 279.447273 291.36384 
L 290.269091 291.36384 
L 290.269091 291.36384 
L 279.447273 291.36384 
z
" style="fill:#ff7f0e;"/>
   </g>
   <g id="patch_53">
    <path clip-path="url(#p468d79e3c8)" d="M 290.269091 289.33632 
L 301.090909 289.33632 
L 301.090909 289.33632 
L 290.269091 289.33632 
z
" style="fill:#ff7f0e;"/>
   </g>
   <g id="patch_54">
    <path clip-path="url(#p468d79e3c8)" d="M 301.090909 297.4464 
L 311.912727 297.4464 
L 311.912727 295.41888 
L 301.090909 295.41888 
z
" style="fill:#ff7f0e;"/>
   </g>
   <g id="patch_55">
    <path clip-path="url(#p468d79e3c8)" d="M 311.912727 307.584 
L 322.734545 307.584 
L 322.734545 307.584 
L 311.912727 307.584 
z
" style="fill:#ff7f0e;"/>
   </g>
   <g id="patch_56">
    <path clip-path="url(#p468d79e3c8)" d="M 322.734545 305.55648 
L 333.556364 305.55648 
L 333.556364 305.55648 
L 322.734545 305.55648 
z
" style="fill:#ff7f0e;"/>
   </g>
   <g id="patch_57">
    <path clip-path="url(#p468d79e3c8)" d="M 333.556364 307.584 
L 344.378182 307.584 
L 344.378182 307.584 
L 333.556364 307.584 
z
" style="fill:#ff7f0e;"/>
   </g>
   <g id="patch_58">
    <path clip-path="url(#p468d79e3c8)" d="M 344.378182 305.55648 
L 355.2 305.55648 
L 355.2 305.55648 
L 344.378182 305.55648 
z
" style="fill:#ff7f0e;"/>
   </g>
   <g id="patch_59">
    <path clip-path="url(#p468d79e3c8)" d="M 355.2 307.584 
L 366.021818 307.584 
L 366.021818 307.584 
L 355.2 307.584 
z
" style="fill:#ff7f0e;"/>
   </g>
   <g id="patch_60">
    <path clip-path="url(#p468d79e3c8)" d="M 366.021818 307.584 
L 376.843636 307.584 
L 376.843636 307.584 
L 366.021818 307.584 
z
" style="fill:#ff7f0e;"/>
   </g>
   <g id="patch_61">
    <path clip-path="url(#p468d79e3c8)" d="M 376.843636 307.584 
L 387.665455 307.584 
L 387.665455 307.584 
L 376.843636 307.584 
z
" style="fill:#ff7f0e;"/>
   </g>
   <g id="patch_62">
    <path clip-path="url(#p468d79e3c8)" d="M 387.665455 305.55648 
L 398.487273 305.55648 
L 398.487273 305.55648 
L 387.665455 305.55648 
z
" style="fill:#ff7f0e;"/>
   </g>
   <g id="patch_63">
    <path clip-path="url(#p468d79e3c8)" d="M 73.832727 301.50144 
L 84.654545 301.50144 
L 84.654545 299.47392 
L 73.832727 299.47392 
z
" style="fill:#2ca02c;"/>
   </g>
   <g id="patch_64">
    <path clip-path="url(#p468d79e3c8)" d="M 84.654545 307.584 
L 95.476364 307.584 
L 95.476364 307.584 
L 84.654545 307.584 
z
" style="fill:#2ca02c;"/>
   </g>
   <g id="patch_65">
    <path clip-path="url(#p468d79e3c8)" d="M 95.476364 301.50144 
L 106.298182 301.50144 
L 106.298182 301.50144 
L 95.476364 301.50144 
z
" style="fill:#2ca02c;"/>
   </g>
   <g id="patch_66">
    <path clip-path="url(#p468d79e3c8)" d="M 106.298182 277.1712 
L 117.12 277.1712 
L 117.12 273.11616 
L 106.298182 273.11616 
z
" style="fill:#2ca02c;"/>
   </g>
   <g id="patch_67">
    <path clip-path="url(#p468d79e3c8)" d="M 117.12 305.55648 
L 127.941818 305.55648 
L 127.941818 305.55648 
L 117.12 305.55648 
z
" style="fill:#2ca02c;"/>
   </g>
   <g id="patch_68">
    <path clip-path="url(#p468d79e3c8)" d="M 127.941818 297.4464 
L 138.763636 297.4464 
L 138.763636 293.39136 
L 127.941818 293.39136 
z
" style="fill:#2ca02c;"/>
   </g>
   <g id="patch_69">
    <path clip-path="url(#p468d79e3c8)" d="M 138.763636 275.14368 
L 149.585455 275.14368 
L 149.585455 267.0336 
L 138.763636 267.0336 
z
" style="fill:#2ca02c;"/>
   </g>
   <g id="patch_70">
    <path clip-path="url(#p468d79e3c8)" d="M 149.585455 277.1712 
L 160.407273 277.1712 
L 160.407273 269.06112 
L 149.585455 269.06112 
z
" style="fill:#2ca02c;"/>
   </g>
   <g id="patch_71">
    <path clip-path="url(#p468d79e3c8)" d="M 160.407273 271.08864 
L 171.229091 271.08864 
L 171.229091 256.896 
L 160.407273 256.896 
z
" style="fill:#2ca02c;"/>
   </g>
   <g id="patch_72">
    <path clip-path="url(#p468d79e3c8)" d="M 171.229091 285.28128 
L 182.050909 285.28128 
L 182.050909 279.19872 
L 171.229091 279.19872 
z
" style="fill:#2ca02c;"/>
   </g>
   <g id="patch_73">
    <path clip-path="url(#p468d79e3c8)" d="M 182.050909 285.28128 
L 192.872727 285.28128 
L 192.872727 281.22624 
L 182.050909 281.22624 
z
" style="fill:#2ca02c;"/>
   </g>
   <g id="patch_74">
    <path clip-path="url(#p468d79e3c8)" d="M 192.872727 224.45568 
L 203.694545 224.45568 
L 203.694545 210.26304 
L 192.872727 210.26304 
z
" style="fill:#2ca02c;"/>
   </g>
   <g id="patch_75">
    <path clip-path="url(#p468d79e3c8)" d="M 203.694545 212.29056 
L 214.516364 212.29056 
L 214.516364 175.7952 
L 203.694545 175.7952 
z
" style="fill:#2ca02c;"/>
   </g>
   <g id="patch_76">
    <path clip-path="url(#p468d79e3c8)" d="M 214.516364 271.08864 
L 225.338182 271.08864 
L 225.338182 262.97856 
L 214.516364 262.97856 
z
" style="fill:#2ca02c;"/>
   </g>
   <g id="patch_77">
    <path clip-path="url(#p468d79e3c8)" d="M 225.338182 250.81344 
L 236.16 250.81344 
L 236.16 242.70336 
L 225.338182 242.70336 
z
" style="fill:#2ca02c;"/>
   </g>
   <g id="patch_78">
    <path clip-path="url(#p468d79e3c8)" d="M 236.16 169.71264 
L 246.981818 169.71264 
L 246.981818 129.16224 
L 236.16 129.16224 
z
" style="fill:#2ca02c;"/>
   </g>
   <g id="patch_79">
    <path clip-path="url(#p468d79e3c8)" d="M 246.981818 254.86848 
L 257.803636 254.86848 
L 257.803636 250.81344 
L 246.981818 250.81344 
z
" style="fill:#2ca02c;"/>
   </g>
   <g id="patch_80">
    <path clip-path="url(#p468d79e3c8)" d="M 257.803636 236.6208 
L 268.625455 236.6208 
L 268.625455 226.4832 
L 257.803636 226.4832 
z
" style="fill:#2ca02c;"/>
   </g>
   <g id="patch_81">
    <path clip-path="url(#p468d79e3c8)" d="M 268.625455 232.56576 
L 279.447273 232.56576 
L 279.447273 216.3456 
L 268.625455 216.3456 
z
" style="fill:#2ca02c;"/>
   </g>
   <g id="patch_82">
    <path clip-path="url(#p468d79e3c8)" d="M 279.447273 291.36384 
L 290.269091 291.36384 
L 290.269091 283.25376 
L 279.447273 283.25376 
z
" style="fill:#2ca02c;"/>
   </g>
   <g id="patch_83">
    <path clip-path="url(#p468d79e3c8)" d="M 290.269091 289.33632 
L 301.090909 289.33632 
L 301.090909 287.3088 
L 290.269091 287.3088 
z
" style="fill:#2ca02c;"/>
   </g>
   <g id="patch_84">
    <path clip-path="url(#p468d79e3c8)" d="M 301.090909 295.41888 
L 311.912727 295.41888 
L 311.912727 291.36384 
L 301.090909 291.36384 
z
" style="fill:#2ca02c;"/>
   </g>
   <g id="patch_85">
    <path clip-path="url(#p468d79e3c8)" d="M 311.912727 307.584 
L 322.734545 307.584 
L 322.734545 307.584 
L 311.912727 307.584 
z
" style="fill:#2ca02c;"/>
   </g>
   <g id="patch_86">
    <path clip-path="url(#p468d79e3c8)" d="M 322.734545 305.55648 
L 333.556364 305.55648 
L 333.556364 305.55648 
L 322.734545 305.55648 
z
" style="fill:#2ca02c;"/>
   </g>
   <g id="patch_87">
    <path clip-path="url(#p468d79e3c8)" d="M 333.556364 307.584 
L 344.378182 307.584 
L 344.378182 307.584 
L 333.556364 307.584 
z
" style="fill:#2ca02c;"/>
   </g>
   <g id="patch_88">
    <path clip-path="url(#p468d79e3c8)" d="M 344.378182 305.55648 
L 355.2 305.55648 
L 355.2 305.55648 
L 344.378182 305.55648 
z
" style="fill:#2ca02c;"/>
   </g>
   <g id="patch_89">
    <path clip-path="url(#p468d79e3c8)" d="M 355.2 307.584 
L 366.021818 307.584 
L 366.021818 307.584 
L 355.2 307.584 
z
" style="fill:#2ca02c;"/>
   </g>
   <g id="patch_90">
    <path clip-path="url(#p468d79e3c8)" d="M 366.021818 307.584 
L 376.843636 307.584 
L 376.843636 307.584 
L 366.021818 307.584 
z
" style="fill:#2ca02c;"/>
   </g>
   <g id="patch_91">
    <path clip-path="url(#p468d79e3c8)" d="M 376.843636 307.584 
L 387.665455 307.584 
L 387.665455 307.584 
L 376.843636 307.584 
z
" style="fill:#2ca02c;"/>
   </g>
   <g id="patch_92">
    <path clip-path="url(#p468d79e3c8)" d="M 387.665455 305.55648 
L 398.487273 305.55648 
L 398.487273 305.55648 
L 387.665455 305.55648 
z
" style="fill:#2ca02c;"/>
   </g>
   <g id="patch_93">
    <path clip-path="url(#p468d79e3c8)" d="M 73.832727 299.47392 
L 84.654545 299.47392 
L 84.654545 297.4464 
L 73.832727 297.4464 
z
" style="fill:#d62728;"/>
   </g>
   <g id="patch_94">
    <path clip-path="url(#p468d79e3c8)" d="M 84.654545 307.584 
L 95.476364 307.584 
L 95.476364 307.584 
L 84.654545 307.584 
z
" style="fill:#d62728;"/>
   </g>
   <g id="patch_95">
    <path clip-path="url(#p468d79e3c8)" d="M 95.476364 301.50144 
L 106.298182 301.50144 
L 106.298182 301.50144 
L 95.476364 301.50144 
z
" style="fill:#d62728;"/>
   </g>
   <g id="patch_96">
    <path clip-path="url(#p468d79e3c8)" d="M 106.298182 273.11616 
L 117.12 273.11616 
L 117.12 265.00608 
L 106.298182 265.00608 
z
" style="fill:#d62728;"/>
   </g>
   <g id="patch_97">
    <path clip-path="url(#p468d79e3c8)" d="M 117.12 305.55648 
L 127.941818 305.55648 
L 127.941818 305.55648 
L 117.12 305.55648 
z
" style="fill:#d62728;"/>
   </g>
   <g id="patch_98">
    <path clip-path="url(#p468d79e3c8)" d="M 127.941818 293.39136 
L 138.763636 293.39136 
L 138.763636 289.33632 
L 127.941818 289.33632 
z
" style="fill:#d62728;"/>
   </g>
   <g id="patch_99">
    <path clip-path="url(#p468d79e3c8)" d="M 138.763636 267.0336 
L 149.585455 267.0336 
L 149.585455 254.86848 
L 138.763636 254.86848 
z
" style="fill:#d62728;"/>
   </g>
   <g id="patch_100">
    <path clip-path="url(#p468d79e3c8)" d="M 149.585455 269.06112 
L 160.407273 269.06112 
L 160.407273 256.896 
L 149.585455 256.896 
z
" style="fill:#d62728;"/>
   </g>
   <g id="patch_101">
    <path clip-path="url(#p468d79e3c8)" d="M 160.407273 256.896 
L 171.229091 256.896 
L 171.229091 240.67584 
L 160.407273 240.67584 
z
" style="fill:#d62728;"/>
   </g>
   <g id="patch_102">
    <path clip-path="url(#p468d79e3c8)" d="M 171.229091 279.19872 
L 182.050909 279.19872 
L 182.050909 269.06112 
L 171.229091 269.06112 
z
" style="fill:#d62728;"/>
   </g>
   <g id="patch_103">
    <path clip-path="url(#p468d79e3c8)" d="M 182.050909 281.22624 
L 192.872727 281.22624 
L 192.872727 269.06112 
L 182.050909 269.06112 
z
" style="fill:#d62728;"/>
   </g>
   <g id="patch_104">
    <path clip-path="url(#p468d79e3c8)" d="M 192.872727 210.26304 
L 203.694545 210.26304 
L 203.694545 165.6576 
L 192.872727 165.6576 
z
" style="fill:#d62728;"/>
   </g>
   <g id="patch_105">
    <path clip-path="url(#p468d79e3c8)" d="M 203.694545 175.7952 
L 214.516364 175.7952 
L 214.516364 129.16224 
L 203.694545 129.16224 
z
" style="fill:#d62728;"/>
   </g>
   <g id="patch_106">
    <path clip-path="url(#p468d79e3c8)" d="M 214.516364 262.97856 
L 225.338182 262.97856 
L 225.338182 246.7584 
L 214.516364 246.7584 
z
" style="fill:#d62728;"/>
   </g>
   <g id="patch_107">
    <path clip-path="url(#p468d79e3c8)" d="M 225.338182 242.70336 
L 236.16 242.70336 
L 236.16 216.3456 
L 225.338182 216.3456 
z
" style="fill:#d62728;"/>
   </g>
   <g id="patch_108">
    <path clip-path="url(#p468d79e3c8)" d="M 236.16 129.16224 
L 246.981818 129.16224 
L 246.981818 54.144 
L 236.16 54.144 
z
" style="fill:#d62728;"/>
   </g>
   <g id="patch_109">
    <path clip-path="url(#p468d79e3c8)" d="M 246.981818 250.81344 
L 257.803636 250.81344 
L 257.803636 218.37312 
L 246.981818 218.37312 
z
" style="fill:#d62728;"/>
   </g>
   <g id="patch_110">
    <path clip-path="url(#p468d79e3c8)" d="M 257.803636 226.4832 
L 268.625455 226.4832 
L 268.625455 192.01536 
L 257.803636 192.01536 
z
" style="fill:#d62728;"/>
   </g>
   <g id="patch_111">
    <path clip-path="url(#p468d79e3c8)" d="M 268.625455 216.3456 
L 279.447273 216.3456 
L 279.447273 192.01536 
L 268.625455 192.01536 
z
" style="fill:#d62728;"/>
   </g>
   <g id="patch_112">
    <path clip-path="url(#p468d79e3c8)" d="M 279.447273 283.25376 
L 290.269091 283.25376 
L 290.269091 269.06112 
L 279.447273 269.06112 
z
" style="fill:#d62728;"/>
   </g>
   <g id="patch_113">
    <path clip-path="url(#p468d79e3c8)" d="M 290.269091 287.3088 
L 301.090909 287.3088 
L 301.090909 281.22624 
L 290.269091 281.22624 
z
" style="fill:#d62728;"/>
   </g>
   <g id="patch_114">
    <path clip-path="url(#p468d79e3c8)" d="M 301.090909 291.36384 
L 311.912727 291.36384 
L 311.912727 285.28128 
L 301.090909 285.28128 
z
" style="fill:#d62728;"/>
   </g>
   <g id="patch_115">
    <path clip-path="url(#p468d79e3c8)" d="M 311.912727 307.584 
L 322.734545 307.584 
L 322.734545 307.584 
L 311.912727 307.584 
z
" style="fill:#d62728;"/>
   </g>
   <g id="patch_116">
    <path clip-path="url(#p468d79e3c8)" d="M 322.734545 305.55648 
L 333.556364 305.55648 
L 333.556364 305.55648 
L 322.734545 305.55648 
z
" style="fill:#d62728;"/>
   </g>
   <g id="patch_117">
    <path clip-path="url(#p468d79e3c8)" d="M 333.556364 307.584 
L 344.378182 307.584 
L 344.378182 307.584 
L 333.556364 307.584 
z
" style="fill:#d62728;"/>
   </g>
   <g id="patch_118">
    <path clip-path="url(#p468d79e3c8)" d="M 344.378182 305.55648 
L 355.2 305.55648 
L 355.2 303.52896 
L 344.378182 303.52896 
z
" style="fill:#d62728;"/>
   </g>
   <g id="patch_119">
    <path clip-path="url(#p468d79e3c8)" d="M 355.2 307.584 
L 366.021818 307.584 
L 366.021818 307.584 
L 355.2 307.584 
z
" style="fill:#d62728;"/>
   </g>
   <g id="patch_120">
    <path clip-path="url(#p468d79e3c8)" d="M 366.021818 307.584 
L 376.843636 307.584 
L 376.843636 307.584 
L 366.021818 307.584 
z
" style="fill:#d62728;"/>
   </g>
   <g id="patch_121">
    <path clip-path="url(#p468d79e3c8)" d="M 376.843636 307.584 
L 387.665455 307.584 
L 387.665455 307.584 
L 376.843636 307.584 
z
" style="fill:#d62728;"/>
   </g>
   <g id="patch_122">
    <path clip-path="url(#p468d79e3c8)" d="M 387.665455 305.55648 
L 398.487273 305.55648 
L 398.487273 305.55648 
L 387.665455 305.55648 
z
" style="fill:#d62728;"/>
   </g>
   <g id="matplotlib.axis_1">
    <g id="xtick_1">
     <g id="line2d_1">
      <defs>
       <path d="M 0 0 
L 0 3.5 
" id="mdd7c6a52c2" style="stroke:#000000;stroke-width:0.8;"/>
      </defs>
      <g>
       <use style="stroke:#000000;stroke-width:0.8;" x="105.031352" xlink:href="#mdd7c6a52c2" y="307.584"/>
      </g>
     </g>
     <g id="text_1">
      <!-- 24.94 -->
      <g transform="translate(90.71729 322.182437)scale(0.1 -0.1)">
       <defs>
        <path d="M 1228 531 
L 3431 531 
L 3431 0 
L 469 0 
L 469 531 
Q 828 903 1448 1529 
Q 2069 2156 2228 2338 
Q 2531 2678 2651 2914 
Q 2772 3150 2772 3378 
Q 2772 3750 2511 3984 
Q 2250 4219 1831 4219 
Q 1534 4219 1204 4116 
Q 875 4013 500 3803 
L 500 4441 
Q 881 4594 1212 4672 
Q 1544 4750 1819 4750 
Q 2544 4750 2975 4387 
Q 3406 4025 3406 3419 
Q 3406 3131 3298 2873 
Q 3191 2616 2906 2266 
Q 2828 2175 2409 1742 
Q 1991 1309 1228 531 
z
" id="DejaVuSans-32" transform="scale(0.015625)"/>
        <path d="M 2419 4116 
L 825 1625 
L 2419 1625 
L 2419 4116 
z
M 2253 4666 
L 3047 4666 
L 3047 1625 
L 3713 1625 
L 3713 1100 
L 3047 1100 
L 3047 0 
L 2419 0 
L 2419 1100 
L 313 1100 
L 313 1709 
L 2253 4666 
z
" id="DejaVuSans-34" transform="scale(0.015625)"/>
        <path d="M 684 794 
L 1344 794 
L 1344 0 
L 684 0 
L 684 794 
z
" id="DejaVuSans-2e" transform="scale(0.015625)"/>
        <path d="M 703 97 
L 703 672 
Q 941 559 1184 500 
Q 1428 441 1663 441 
Q 2288 441 2617 861 
Q 2947 1281 2994 2138 
Q 2813 1869 2534 1725 
Q 2256 1581 1919 1581 
Q 1219 1581 811 2004 
Q 403 2428 403 3163 
Q 403 3881 828 4315 
Q 1253 4750 1959 4750 
Q 2769 4750 3195 4129 
Q 3622 3509 3622 2328 
Q 3622 1225 3098 567 
Q 2575 -91 1691 -91 
Q 1453 -91 1209 -44 
Q 966 3 703 97 
z
M 1959 2075 
Q 2384 2075 2632 2365 
Q 2881 2656 2881 3163 
Q 2881 3666 2632 3958 
Q 2384 4250 1959 4250 
Q 1534 4250 1286 3958 
Q 1038 3666 1038 3163 
Q 1038 2656 1286 2365 
Q 1534 2075 1959 2075 
z
" id="DejaVuSans-39" transform="scale(0.015625)"/>
       </defs>
       <use xlink:href="#DejaVuSans-32"/>
       <use x="63.623047" xlink:href="#DejaVuSans-34"/>
       <use x="127.246094" xlink:href="#DejaVuSans-2e"/>
       <use x="159.033203" xlink:href="#DejaVuSans-39"/>
       <use x="222.65625" xlink:href="#DejaVuSans-34"/>
      </g>
     </g>
    </g>
    <g id="xtick_2">
     <g id="line2d_2">
      <g>
       <use style="stroke:#000000;stroke-width:0.8;" x="183.716409" xlink:href="#mdd7c6a52c2" y="307.584"/>
      </g>
     </g>
     <g id="text_2">
      <!-- 24.96 -->
      <g transform="translate(169.402347 322.182437)scale(0.1 -0.1)">
       <defs>
        <path d="M 2113 2584 
Q 1688 2584 1439 2293 
Q 1191 2003 1191 1497 
Q 1191 994 1439 701 
Q 1688 409 2113 409 
Q 2538 409 2786 701 
Q 3034 994 3034 1497 
Q 3034 2003 2786 2293 
Q 2538 2584 2113 2584 
z
M 3366 4563 
L 3366 3988 
Q 3128 4100 2886 4159 
Q 2644 4219 2406 4219 
Q 1781 4219 1451 3797 
Q 1122 3375 1075 2522 
Q 1259 2794 1537 2939 
Q 1816 3084 2150 3084 
Q 2853 3084 3261 2657 
Q 3669 2231 3669 1497 
Q 3669 778 3244 343 
Q 2819 -91 2113 -91 
Q 1303 -91 875 529 
Q 447 1150 447 2328 
Q 447 3434 972 4092 
Q 1497 4750 2381 4750 
Q 2619 4750 2861 4703 
Q 3103 4656 3366 4563 
z
" id="DejaVuSans-36" transform="scale(0.015625)"/>
       </defs>
       <use xlink:href="#DejaVuSans-32"/>
       <use x="63.623047" xlink:href="#DejaVuSans-34"/>
       <use x="127.246094" xlink:href="#DejaVuSans-2e"/>
       <use x="159.033203" xlink:href="#DejaVuSans-39"/>
       <use x="222.65625" xlink:href="#DejaVuSans-36"/>
      </g>
     </g>
    </g>
    <g id="xtick_3">
     <g id="line2d_3">
      <g>
       <use style="stroke:#000000;stroke-width:0.8;" x="262.401467" xlink:href="#mdd7c6a52c2" y="307.584"/>
      </g>
     </g>
     <g id="text_3">
      <!-- 24.98 -->
      <g transform="translate(248.087404 322.182437)scale(0.1 -0.1)">
       <defs>
        <path d="M 2034 2216 
Q 1584 2216 1326 1975 
Q 1069 1734 1069 1313 
Q 1069 891 1326 650 
Q 1584 409 2034 409 
Q 2484 409 2743 651 
Q 3003 894 3003 1313 
Q 3003 1734 2745 1975 
Q 2488 2216 2034 2216 
z
M 1403 2484 
Q 997 2584 770 2862 
Q 544 3141 544 3541 
Q 544 4100 942 4425 
Q 1341 4750 2034 4750 
Q 2731 4750 3128 4425 
Q 3525 4100 3525 3541 
Q 3525 3141 3298 2862 
Q 3072 2584 2669 2484 
Q 3125 2378 3379 2068 
Q 3634 1759 3634 1313 
Q 3634 634 3220 271 
Q 2806 -91 2034 -91 
Q 1263 -91 848 271 
Q 434 634 434 1313 
Q 434 1759 690 2068 
Q 947 2378 1403 2484 
z
M 1172 3481 
Q 1172 3119 1398 2916 
Q 1625 2713 2034 2713 
Q 2441 2713 2670 2916 
Q 2900 3119 2900 3481 
Q 2900 3844 2670 4047 
Q 2441 4250 2034 4250 
Q 1625 4250 1398 4047 
Q 1172 3844 1172 3481 
z
" id="DejaVuSans-38" transform="scale(0.015625)"/>
       </defs>
       <use xlink:href="#DejaVuSans-32"/>
       <use x="63.623047" xlink:href="#DejaVuSans-34"/>
       <use x="127.246094" xlink:href="#DejaVuSans-2e"/>
       <use x="159.033203" xlink:href="#DejaVuSans-39"/>
       <use x="222.65625" xlink:href="#DejaVuSans-38"/>
      </g>
     </g>
    </g>
    <g id="xtick_4">
     <g id="line2d_4">
      <g>
       <use style="stroke:#000000;stroke-width:0.8;" x="341.086524" xlink:href="#mdd7c6a52c2" y="307.584"/>
      </g>
     </g>
     <g id="text_4">
      <!-- 25.00 -->
      <g transform="translate(326.772461 322.182437)scale(0.1 -0.1)">
       <defs>
        <path d="M 691 4666 
L 3169 4666 
L 3169 4134 
L 1269 4134 
L 1269 2991 
Q 1406 3038 1543 3061 
Q 1681 3084 1819 3084 
Q 2600 3084 3056 2656 
Q 3513 2228 3513 1497 
Q 3513 744 3044 326 
Q 2575 -91 1722 -91 
Q 1428 -91 1123 -41 
Q 819 9 494 109 
L 494 744 
Q 775 591 1075 516 
Q 1375 441 1709 441 
Q 2250 441 2565 725 
Q 2881 1009 2881 1497 
Q 2881 1984 2565 2268 
Q 2250 2553 1709 2553 
Q 1456 2553 1204 2497 
Q 953 2441 691 2322 
L 691 4666 
z
" id="DejaVuSans-35" transform="scale(0.015625)"/>
        <path d="M 2034 4250 
Q 1547 4250 1301 3770 
Q 1056 3291 1056 2328 
Q 1056 1369 1301 889 
Q 1547 409 2034 409 
Q 2525 409 2770 889 
Q 3016 1369 3016 2328 
Q 3016 3291 2770 3770 
Q 2525 4250 2034 4250 
z
M 2034 4750 
Q 2819 4750 3233 4129 
Q 3647 3509 3647 2328 
Q 3647 1150 3233 529 
Q 2819 -91 2034 -91 
Q 1250 -91 836 529 
Q 422 1150 422 2328 
Q 422 3509 836 4129 
Q 1250 4750 2034 4750 
z
" id="DejaVuSans-30" transform="scale(0.015625)"/>
       </defs>
       <use xlink:href="#DejaVuSans-32"/>
       <use x="63.623047" xlink:href="#DejaVuSans-35"/>
       <use x="127.246094" xlink:href="#DejaVuSans-2e"/>
       <use x="159.033203" xlink:href="#DejaVuSans-30"/>
       <use x="222.65625" xlink:href="#DejaVuSans-30"/>
      </g>
     </g>
    </g>
   </g>
   <g id="matplotlib.axis_2">
    <g id="ytick_1">
     <g id="line2d_5">
      <defs>
       <path d="M 0 0 
L -3.5 0 
" id="m9fd76ad969" style="stroke:#000000;stroke-width:0.8;"/>
      </defs>
      <g>
       <use style="stroke:#000000;stroke-width:0.8;" x="57.6" xlink:href="#m9fd76ad969" y="307.584"/>
      </g>
     </g>
     <g id="text_5">
      <!-- 0 -->
      <g transform="translate(44.2375 311.383219)scale(0.1 -0.1)">
       <use xlink:href="#DejaVuSans-30"/>
      </g>
     </g>
    </g>
    <g id="ytick_2">
     <g id="line2d_6">
      <g>
       <use style="stroke:#000000;stroke-width:0.8;" x="57.6" xlink:href="#m9fd76ad969" y="267.206291"/>
      </g>
     </g>
     <g id="text_6">
      <!-- 10 -->
      <g transform="translate(37.875 271.005509)scale(0.1 -0.1)">
       <defs>
        <path d="M 794 531 
L 1825 531 
L 1825 4091 
L 703 3866 
L 703 4441 
L 1819 4666 
L 2450 4666 
L 2450 531 
L 3481 531 
L 3481 0 
L 794 0 
L 794 531 
z
" id="DejaVuSans-31" transform="scale(0.015625)"/>
       </defs>
       <use xlink:href="#DejaVuSans-31"/>
       <use x="63.623047" xlink:href="#DejaVuSans-30"/>
      </g>
     </g>
    </g>
    <g id="ytick_3">
     <g id="line2d_7">
      <g>
       <use style="stroke:#000000;stroke-width:0.8;" x="57.6" xlink:href="#m9fd76ad969" y="226.828581"/>
      </g>
     </g>
     <g id="text_7">
      <!-- 20 -->
      <g transform="translate(37.875 230.6278)scale(0.1 -0.1)">
       <use xlink:href="#DejaVuSans-32"/>
       <use x="63.623047" xlink:href="#DejaVuSans-30"/>
      </g>
     </g>
    </g>
    <g id="ytick_4">
     <g id="line2d_8">
      <g>
       <use style="stroke:#000000;stroke-width:0.8;" x="57.6" xlink:href="#m9fd76ad969" y="186.450872"/>
      </g>
     </g>
     <g id="text_8">
      <!-- 30 -->
      <g transform="translate(37.875 190.250091)scale(0.1 -0.1)">
       <defs>
        <path d="M 2597 2516 
Q 3050 2419 3304 2112 
Q 3559 1806 3559 1356 
Q 3559 666 3084 287 
Q 2609 -91 1734 -91 
Q 1441 -91 1130 -33 
Q 819 25 488 141 
L 488 750 
Q 750 597 1062 519 
Q 1375 441 1716 441 
Q 2309 441 2620 675 
Q 2931 909 2931 1356 
Q 2931 1769 2642 2001 
Q 2353 2234 1838 2234 
L 1294 2234 
L 1294 2753 
L 1863 2753 
Q 2328 2753 2575 2939 
Q 2822 3125 2822 3475 
Q 2822 3834 2567 4026 
Q 2313 4219 1838 4219 
Q 1578 4219 1281 4162 
Q 984 4106 628 3988 
L 628 4550 
Q 988 4650 1302 4700 
Q 1616 4750 1894 4750 
Q 2613 4750 3031 4423 
Q 3450 4097 3450 3541 
Q 3450 3153 3228 2886 
Q 3006 2619 2597 2516 
z
" id="DejaVuSans-33" transform="scale(0.015625)"/>
       </defs>
       <use xlink:href="#DejaVuSans-33"/>
       <use x="63.623047" xlink:href="#DejaVuSans-30"/>
      </g>
     </g>
    </g>
    <g id="ytick_5">
     <g id="line2d_9">
      <g>
       <use style="stroke:#000000;stroke-width:0.8;" x="57.6" xlink:href="#m9fd76ad969" y="146.073163"/>
      </g>
     </g>
     <g id="text_9">
      <!-- 40 -->
      <g transform="translate(37.875 149.872381)scale(0.1 -0.1)">
       <use xlink:href="#DejaVuSans-34"/>
       <use x="63.623047" xlink:href="#DejaVuSans-30"/>
      </g>
     </g>
    </g>
    <g id="ytick_6">
     <g id="line2d_10">
      <g>
       <use style="stroke:#000000;stroke-width:0.8;" x="57.6" xlink:href="#m9fd76ad969" y="105.695453"/>
      </g>
     </g>
     <g id="text_10">
      <!-- 50 -->
      <g transform="translate(37.875 109.494672)scale(0.1 -0.1)">
       <use xlink:href="#DejaVuSans-35"/>
       <use x="63.623047" xlink:href="#DejaVuSans-30"/>
      </g>
     </g>
    </g>
    <g id="ytick_7">
     <g id="line2d_11">
      <g>
       <use style="stroke:#000000;stroke-width:0.8;" x="57.6" xlink:href="#m9fd76ad969" y="65.317744"/>
      </g>
     </g>
     <g id="text_11">
      <!-- 60 -->
      <g transform="translate(37.875 69.116963)scale(0.1 -0.1)">
       <use xlink:href="#DejaVuSans-36"/>
       <use x="63.623047" xlink:href="#DejaVuSans-30"/>
      </g>
     </g>
    </g>
   </g>
   <g id="patch_123">
    <path d="M 57.6 307.584 
L 57.6 41.472 
" style="fill:none;stroke:#000000;stroke-linecap:square;stroke-linejoin:miter;stroke-width:0.8;"/>
   </g>
   <g id="patch_124">
    <path d="M 414.72 307.584 
L 414.72 41.472 
" style="fill:none;stroke:#000000;stroke-linecap:square;stroke-linejoin:miter;stroke-width:0.8;"/>
   </g>
   <g id="patch_125">
    <path d="M 57.6 307.584 
L 414.72 307.584 
" style="fill:none;stroke:#000000;stroke-linecap:square;stroke-linejoin:miter;stroke-width:0.8;"/>
   </g>
   <g id="patch_126">
    <path d="M 57.6 41.472 
L 414.72 41.472 
" style="fill:none;stroke:#000000;stroke-linecap:square;stroke-linejoin:miter;stroke-width:0.8;"/>
   </g>
  </g>
 </g>
 <defs>
  <clipPath id="p468d79e3c8">
   <rect height="266.112" width="357.12" x="57.6" y="41.472"/>
  </clipPath>
 </defs>
</svg>
